<svg width="62" height="962" viewBox="0 0 62 962" fill="none" xmlns="http://www.w3.org/2000/svg">
<path d="M11.1781 -6L2.57363 2.60451H22.0772V22.3949M22.0772 42.1853H2L22.0772 62.2625M22.0772 42.1853L42.4412 62.2625M22.0772 42.1853L2.57363 22.6817L30.6817 -6H42.4412M22.0772 42.1853V22.3949M22.0772 62.2625H42.4412M22.0772 62.2625L2.57363 82.3397H22.0772V102.417M62.8052 62.2625L82.3088 42.1853M62.8052 62.2625L82.3088 82.3397L102.386 62.2625M62.8052 62.2625H42.4412M82.3088 42.1853H102.386M82.3088 42.1853H62.8052M82.3088 42.1853L102.386 62.2625M102.386 42.1853L62.8052 2.60451M102.386 42.1853V22.3949M102.386 42.1853L121.89 62.2625M62.8052 2.60451V22.3949M62.8052 2.60451L53.0534 -6H42.4412M62.8052 2.60451H82.5956M62.8052 42.1853L42.4412 62.2625M62.8052 42.1853V22.3949M62.8052 42.1853L110.99 -6M102.386 62.2625H121.89M42.4412 62.2625V42.1853M42.4412 62.2625V82.3397M42.4412 62.2625L2.57363 101.843L63.3789 162.648M42.4412 62.2625L61.658 81.5712M42.4412 -6V2.60451M42.4412 2.60451L22.0772 22.3949M42.4412 2.60451L62.8052 22.3949M22.0772 22.3949L42.4412 42.1853M42.4412 42.1853L62.8052 22.3949M73.1306 -6L82.5956 2.60451M82.5956 2.60451H102.386V22.3949M82.5956 2.60451L90.9133 -6M121.89 -6V2.60451L102.386 22.3949M102.386 22.3949L121.89 42.1853V62.2625M102.386 421.357L121.89 401.854V381.49M102.386 421.357L121.89 441.435V461.512M102.386 421.357V441.435M102.386 421.357V401.854M121.89 541.247V521.17L102.386 501.093L121.89 481.589V461.512M121.89 541.247L102.386 560.751M121.89 541.247H102.386M121.89 541.247L102.386 521.17M102.386 560.751L121.89 580.828M102.386 560.751H82.022M121.89 580.828V601.479L102.386 620.409L121.89 640.486V660.85M121.89 580.828L102.386 600.331M121.89 580.828H102.386M102.386 700.144L121.89 681.214V660.85M102.386 700.144L121.89 720.795V740.872M102.386 700.144V720.795M102.386 700.144V681.214M102.386 939.923L121.89 920.419V900.055M102.386 939.923V920.419M102.386 939.923V960M102.386 939.923L121.89 960H102.386M102.386 920.419L121.89 900.055M102.386 920.419H82.022M102.386 920.419L61.658 960V939.923M121.89 900.055V879.691L102.386 860.188L121.89 841.258V820.607M121.89 900.055L102.386 879.691M121.89 900.055H102.386M102.386 879.691V841.258M102.386 879.691H82.022M102.386 879.691L21.729 799.956M102.386 841.258L121.89 820.607M102.386 841.258H82.022M102.386 841.258L61.658 879.691M121.89 820.607V799.956L102.386 780.452L121.89 760.949V740.872M121.89 820.607H102.386M121.89 820.607L102.386 799.956M102.386 799.956V760.949M102.386 799.956H82.022M102.386 799.956L2 700.144L102.386 600.331M102.386 760.949L121.89 740.872M102.386 760.949L22.0772 841.258M102.386 760.949H82.5956M121.89 740.872L102.386 720.795M121.89 740.872H102.386M102.386 720.795L62.6149 680.564M102.386 720.795L82.5956 720.7M102.386 681.214L121.89 660.85M102.386 681.214L62.8052 720.605M102.386 681.214L62.6149 680.564M121.89 660.85L102.386 640.486M121.89 660.85H102.386M102.386 640.486V600.331M102.386 640.486L62.4624 600.618M102.386 640.486H82.5005M102.386 600.331L62.4624 600.618M102.386 580.828L82.3088 560.751M102.386 580.828L82.3088 600.331L62.6149 580.828M82.3088 560.751L102.386 541.247M82.3088 560.751L62.6149 541.247M102.386 541.247L82.5005 521.17M102.386 521.17V481.589M102.386 521.17L63.0327 481.589M102.386 521.17H82.5005M102.386 481.589L121.89 461.512M102.386 481.589H82.7093M102.386 481.589L62.6149 521.17M121.89 461.512L102.386 441.435M121.89 461.512H102.386M102.386 441.435L63.1534 401.975M102.386 441.435L82.7697 441.261M102.386 401.854L121.89 381.49M102.386 401.854L63.1534 401.975M102.386 401.854L63.1534 441.087M121.89 381.49V361.126L102.386 341.622L121.89 322.119V301.755M121.89 381.49L102.386 361.126M121.89 381.49H102.386M102.386 361.126V322.119M102.386 361.126L63.1534 322.119M102.386 361.126H82.3088M102.386 322.119L121.89 301.755M102.386 322.119H63.1534M102.386 322.119L63.3789 361.126M121.89 301.755V281.391L102.386 261.887L121.89 241.81V221.733M121.89 301.755L102.386 281.391M121.89 301.755H102.386M102.386 281.391V241.81M102.386 281.391L62.5764 241.81M102.386 281.391L62.5764 281.85M102.386 241.81L121.89 221.733M102.386 241.81H62.5764M102.386 241.81L62.5764 281.85M121.89 221.733V201.656L102.386 182.152L121.89 162.648V141.998M121.89 221.733L102.386 201.656M121.89 221.733H102.386M102.386 201.656V162.648M102.386 201.656L63.3789 162.648M102.386 201.656H82.8824M102.386 162.648L121.89 141.998M102.386 162.648H63.3789M102.386 162.648L2.57363 261.887L63.1534 322.119M121.89 141.998V121.347L102.386 101.843L121.89 82.3397V62.2625M121.89 141.998L102.386 122.494M121.89 141.998H102.386M102.386 122.494V82.3397M102.386 122.494L61.658 81.5712M102.386 122.494H82.3088M102.386 82.3397L121.89 62.2625M102.386 82.3397L61.658 81.5712M102.386 82.3397L62.2316 122.494M42.4412 82.3397L61.658 101.843L42.4412 121.347M42.4412 82.3397L22.0772 102.417M42.4412 121.347V162.648M42.4412 121.347L22.0772 102.417M42.4412 162.648L62.8052 182.152L42.4412 201.656M42.4412 162.648L22.0772 182.152M42.4412 201.656V241.81M42.4412 201.656L22.0772 182.152M42.4412 241.81L62.2316 261.887L42.4412 281.391M42.4412 241.81L22.0772 261.887M42.4412 281.391V322.119M42.4412 281.391L22.0772 261.887M42.4412 322.119L62.8052 341.622L42.4412 361.126M42.4412 322.119L22.0772 342.196M42.4412 361.126V401.854M42.4412 361.126L22.0772 342.196M42.4412 401.854L62.8052 421.357L42.4412 441.435M42.4412 401.854L22.0772 421.644M42.4412 441.435V481.589M42.4412 441.435L22.0772 421.644M42.4412 481.589L62.6149 501.379L42.4412 521.17M42.4412 481.589L22.0772 501.379M42.4412 521.17V541.247M42.4412 521.17L22.0772 501.379M42.4412 541.247L61.658 560.751M42.4412 541.247L3.14727 501.093L63.1534 441.087M42.4412 541.247L62.6149 521.17M42.4412 541.247L22.5387 560.751M61.658 560.751L42.4412 580.828V601.479M61.658 560.751H82.022M42.4412 601.479L62.2316 620.409L42.4412 640.486M42.4412 601.479L22.308 620.982M42.4412 640.486V681.214M42.4412 640.486L22.308 620.982M42.4412 681.214L62.2316 700.144L42.4412 720.795M42.4412 681.214L22.308 701.004M42.4412 720.795V740.872M42.4412 720.795L22.308 701.004M42.4412 760.949L61.658 780.452L42.4412 799.956M42.4412 760.949V740.872M42.4412 760.949L22.1339 780.452M42.4412 799.956V820.607M42.4412 799.956L22.1339 780.452M42.4412 841.258L61.0843 860.188L42.4412 879.691M42.4412 841.258V820.607M42.4412 841.258L22.308 860.474M42.4412 879.691V900.055M42.4412 879.691L22.308 860.474M42.4412 920.419L61.658 939.923M42.4412 920.419V900.055M42.4412 920.419L22.6508 939.923L42.4412 960L61.658 939.923M61.658 939.923V920.419H82.022M82.022 920.419L102.386 900.055M82.022 920.419L62.8052 900.055M102.386 900.055L82.022 879.691M82.022 879.691H61.658M82.022 879.691L62.8052 900.055M61.658 879.691L42.4412 900.055M61.658 879.691V860.188V841.258H82.022M42.4412 900.055H62.8052M42.4412 900.055L22.3702 920.419M42.4412 900.055H22.6508M82.022 841.258L102.386 820.607M82.022 841.258L62.8052 820.607M102.386 820.607L82.022 799.956M82.022 799.956L62.8052 820.607M82.022 799.956H61.658L62.8052 760.949H82.5956M62.8052 820.607H42.4412M42.4412 820.607H22.0772M42.4412 740.872L2 780.452L21.729 799.956M42.4412 740.872H22.0772M42.4412 740.872L62.8052 720.605M102.386 960L22.5387 879.691M22.3702 920.419L3.14727 939.923L22.6508 960L22.3702 920.419ZM22.3702 920.419H3.14727L22.6508 900.055M22.6508 900.055L2 879.691H22.5387M22.5387 879.691L3.14727 860.188L22.0772 841.258M22.5387 879.691L22.308 860.474M22.0772 841.258L22.308 860.474M22.0772 841.258H2L22.0772 820.607M22.0772 820.607L2 799.956H21.729M21.729 799.956L22.1339 780.452M22.0772 740.872L2 760.949H22.5387L22.1339 780.452M22.0772 740.872L2 720.795H22.5387L22.308 701.004M22.0772 740.872H62.8052M22.0772 660.85L2 681.214H22.0772L22.308 701.004M22.0772 660.85L2 640.486H22.0772L22.308 620.982M22.0772 660.85H62.8052M22.0772 580.828L2 600.331L22.5387 601.479L22.308 620.982M22.0772 580.828L3.14727 560.751M22.0772 580.828H42.3461M3.14727 560.751L22.0772 541.247M3.14727 560.751H22.5387M22.0772 541.247L2 521.17H22.0772V501.379M22.0772 541.247H62.6149M22.0772 461.512L3.14727 481.589H22.0772V501.379M22.0772 461.512L3.14727 441.435H22.0772V421.644M22.0772 461.512H63.1534M22.0772 381.49L3.14727 401.854H22.0772V421.644M22.0772 381.49L3.14727 362.273H22.0772V342.196M22.0772 381.49H63.1534M22.0772 302.615L3.14727 322.119H22.0772V342.196M22.0772 302.615L2.57363 281.964H22.0772V261.887M22.0772 302.615H62.5764M22.0772 221.733L2.57363 241.81H22.0772V261.887M22.0772 221.733L2.57363 201.656H22.0772V182.152M22.0772 221.733H63.3789M22.0772 141.998L2.57363 162.648H22.0772V182.152M22.0772 141.998L2.57363 122.494H22.0772V102.417M22.0772 141.998H62.2316M61.658 81.5712L62.2316 122.494M62.2316 122.494L2.57363 182.152L62.5764 241.81M62.2316 122.494H82.3088M62.2316 141.998L82.3088 122.494M62.2316 141.998L82.3088 162.648L102.386 141.998M82.3088 122.494L102.386 141.998M63.3789 162.648V201.656H82.8824M63.3789 221.733L82.8824 201.656M63.3789 221.733L82.8824 241.81L102.386 221.733M82.8824 201.656L102.386 221.733M62.5764 241.81V281.85M62.5764 281.85L3.14727 341.622L63.1534 401.975M62.5764 302.615L82.3088 282.538L102.386 301.755M62.5764 302.615L82.3088 322.119L102.386 301.755M63.1534 322.119L63.3789 361.126M63.3789 361.126L3.14727 421.357L63.0327 481.589M63.3789 361.126H82.3088M22.5387 560.751L62.4624 600.618M63.1534 381.49L82.3088 361.126M63.1534 381.49L82.3088 401.854L102.386 381.49M82.3088 361.126L102.386 381.49M63.1534 401.975V441.087M63.1534 441.087L82.7697 441.261M63.1534 461.512L82.7697 441.261M63.1534 461.512L82.7093 481.589M82.7697 441.261L102.386 461.512M102.386 461.512L82.7093 481.589M63.0327 481.589H82.7093M63.0327 481.589L62.6149 521.17M62.6149 521.17H82.5005M62.6149 541.247L82.5005 521.17M82.022 560.751L62.6149 580.828M62.6149 580.828H42.3461M42.3461 580.828L3.14727 620.409L62.6149 680.564M62.4624 600.618L62.6149 640.486H82.5005M82.5005 640.486L62.8052 660.85M82.5005 640.486L102.386 660.85M62.8052 660.85L82.5005 681.214L102.386 660.85M62.6149 680.564L62.8052 720.605M62.8052 720.605L82.5956 720.7M82.5956 720.7L102.386 740.872M82.5956 720.7L62.8052 740.872M102.386 740.872L82.5956 760.949M82.5956 760.949L62.8052 740.872" stroke="#7A6145" stroke-width="0.917815"/>
</svg>
