<svg width="18" height="812" viewBox="0 0 18 812" fill="none" xmlns="http://www.w3.org/2000/svg">
<path d="M8.69596 1L1.481 8.21496H17.8349V24.8094M17.8349 41.4038H1L17.8349 58.2387M17.8349 41.4038L34.9103 58.2387M17.8349 41.4038L1.481 25.0499L25.0499 1H34.9103M17.8349 41.4038V24.8094M17.8349 58.2387H34.9103M17.8349 58.2387L1.481 75.0736H17.8349V91.9086M51.9857 58.2387L68.3397 41.4038M51.9857 58.2387L68.3397 75.0736L85.1746 58.2387M51.9857 58.2387H34.9103M68.3397 41.4038H85.1746M68.3397 41.4038H51.9857M68.3397 41.4038L85.1746 58.2387M85.1746 41.4038L51.9857 8.21496M85.1746 41.4038V24.8094M85.1746 41.4038L101.529 58.2387M51.9857 8.21496V24.8094M51.9857 8.21496L43.8088 1H34.9103M51.9857 8.21496H68.5802M51.9857 41.4038L34.9103 58.2387M51.9857 41.4038V24.8094M51.9857 41.4038L92.3895 1M85.1746 58.2387H101.529M34.9103 58.2387V41.4038M34.9103 58.2387V75.0736M34.9103 58.2387L1.481 91.4276L52.4667 142.413M34.9103 58.2387L51.0238 74.4292M34.9103 1V8.21496M34.9103 8.21496L17.8349 24.8094M34.9103 8.21496L51.9857 24.8094M17.8349 24.8094L34.9103 41.4038M34.9103 41.4038L51.9857 24.8094M60.6437 1L68.5802 8.21496M68.5802 8.21496H85.1746V24.8094M68.5802 8.21496L75.5546 1M101.529 1V8.21496L85.1746 24.8094M85.1746 24.8094L101.529 41.4038V58.2387M85.1746 359.343L101.529 342.989V325.914M85.1746 359.343L101.529 376.178V393.013M85.1746 359.343V376.178M85.1746 359.343V342.989M101.529 459.872V443.037L85.1746 426.202L101.529 409.848V393.013M101.529 459.872L85.1746 476.226M101.529 459.872H85.1746M101.529 459.872L85.1746 443.037M85.1746 476.226L101.529 493.061M85.1746 476.226H68.0992M101.529 493.061V510.376L85.1746 526.249L101.529 543.084V560.16M101.529 493.061L85.1746 509.414M101.529 493.061H85.1746M85.1746 593.108L101.529 577.235V560.16M85.1746 593.108L101.529 610.424V627.259M85.1746 593.108V610.424M85.1746 593.108V577.235M85.1746 794.165L101.529 777.811V760.736M85.1746 794.165V777.811M85.1746 794.165V811M85.1746 794.165L101.529 811H85.1746M85.1746 777.811L101.529 760.736M85.1746 777.811H68.0992M85.1746 777.811L51.0238 811V794.165M101.529 760.736V743.66L85.1746 727.306L101.529 711.433V694.118M101.529 760.736L85.1746 743.66M101.529 760.736H85.1746M85.1746 743.66V711.433M85.1746 743.66H68.0992M85.1746 743.66L17.543 676.802M85.1746 711.433L101.529 694.118M85.1746 711.433H68.0992M85.1746 711.433L51.0238 743.66M101.529 694.118V676.802L85.1746 660.448L101.529 644.094V627.259M101.529 694.118H85.1746M101.529 694.118L85.1746 676.802M85.1746 676.802V644.094M85.1746 676.802H68.0992M85.1746 676.802L1 593.108L85.1746 509.414M85.1746 644.094L101.529 627.259M85.1746 644.094L17.8349 711.433M85.1746 644.094H68.5802M101.529 627.259L85.1746 610.424M101.529 627.259H85.1746M85.1746 610.424L51.8262 576.69M85.1746 610.424L68.5802 610.345M85.1746 577.235L101.529 560.16M85.1746 577.235L51.9857 610.265M85.1746 577.235L51.8262 576.69M101.529 560.16L85.1746 543.084M101.529 560.16H85.1746M85.1746 543.084V509.414M85.1746 543.084L51.6983 509.655M85.1746 543.084H68.5004M85.1746 509.414L51.6983 509.655M85.1746 493.061L68.3397 476.226M85.1746 493.061L68.3397 509.414L51.8262 493.061M68.3397 476.226L85.1746 459.872M68.3397 476.226L51.8262 459.872M85.1746 459.872L68.5004 443.037M85.1746 443.037V409.848M85.1746 443.037L52.1765 409.848M85.1746 443.037H68.5004M85.1746 409.848L101.529 393.013M85.1746 409.848H68.6755M85.1746 409.848L51.8262 443.037M101.529 393.013L85.1746 376.178M101.529 393.013H85.1746M85.1746 376.178L52.2777 343.091M85.1746 376.178L68.7261 376.032M85.1746 342.989L101.529 325.914M85.1746 342.989L52.2777 343.091M85.1746 342.989L52.2777 375.886M101.529 325.914V308.838L85.1746 292.485L101.529 276.131V259.055M101.529 325.914L85.1746 308.838M101.529 325.914H85.1746M85.1746 308.838V276.131M85.1746 308.838L52.2777 276.131M85.1746 308.838H68.3397M85.1746 276.131L101.529 259.055M85.1746 276.131H52.2777M85.1746 276.131L52.4667 308.838M101.529 259.055V241.98L85.1746 225.626L101.529 208.791V191.956M101.529 259.055L85.1746 241.98M101.529 259.055H85.1746M85.1746 241.98V208.791M85.1746 241.98L51.7939 208.791M85.1746 241.98L51.7939 242.365M85.1746 208.791L101.529 191.956M85.1746 208.791H51.7939M85.1746 208.791L51.7939 242.365M101.529 191.956V175.121L85.1746 158.767L101.529 142.413V125.097M101.529 191.956L85.1746 175.121M101.529 191.956H85.1746M85.1746 175.121V142.413M85.1746 175.121L52.4667 142.413M85.1746 175.121H68.8207M85.1746 142.413L101.529 125.097M85.1746 142.413H52.4667M85.1746 142.413L1.481 225.626L52.2777 276.131M101.529 125.097V107.781L85.1746 91.4276L101.529 75.0736V58.2387M101.529 125.097L85.1746 108.743M101.529 125.097H85.1746M85.1746 108.743V75.0736M85.1746 108.743L51.0238 74.4292M85.1746 108.743H68.3397M85.1746 75.0736L101.529 58.2387M85.1746 75.0736L51.0238 74.4292M85.1746 75.0736L51.5048 108.743M34.9103 75.0736L51.0238 91.4276L34.9103 107.781M34.9103 75.0736L17.8349 91.9086M34.9103 107.781V142.413M34.9103 107.781L17.8349 91.9086M34.9103 142.413L51.9857 158.767L34.9103 175.121M34.9103 142.413L17.8349 158.767M34.9103 175.121V208.791M34.9103 175.121L17.8349 158.767M34.9103 208.791L51.5048 225.626L34.9103 241.98M34.9103 208.791L17.8349 225.626M34.9103 241.98V276.131M34.9103 241.98L17.8349 225.626M34.9103 276.131L51.9857 292.485L34.9103 308.838M34.9103 276.131L17.8349 292.966M34.9103 308.838V342.989M34.9103 308.838L17.8349 292.966M34.9103 342.989L51.9857 359.343L34.9103 376.178M34.9103 342.989L17.8349 359.584M34.9103 376.178V409.848M34.9103 376.178L17.8349 359.584M34.9103 409.848L51.8262 426.442L34.9103 443.037M34.9103 409.848L17.8349 426.442M34.9103 443.037V459.872M34.9103 443.037L17.8349 426.442M34.9103 459.872L51.0238 476.226M34.9103 459.872L1.962 426.202L52.2777 375.886M34.9103 459.872L51.8262 443.037M34.9103 459.872L18.2219 476.226M51.0238 476.226L34.9103 493.061V510.376M51.0238 476.226H68.0992M34.9103 510.376L51.5048 526.249L34.9103 543.084M34.9103 510.376L18.0284 526.73M34.9103 543.084V577.235M34.9103 543.084L18.0284 526.73M34.9103 577.235L51.5048 593.108L34.9103 610.424M34.9103 577.235L18.0284 593.83M34.9103 610.424V627.259M34.9103 610.424L18.0284 593.83M34.9103 644.094L51.0238 660.448L34.9103 676.802M34.9103 644.094V627.259M34.9103 644.094L17.8825 660.448M34.9103 676.802V694.118M34.9103 676.802L17.8825 660.448M34.9103 711.433L50.5428 727.306L34.9103 743.66M34.9103 711.433V694.118M34.9103 711.433L18.0284 727.547M34.9103 743.66V760.736M34.9103 743.66L18.0284 727.547M34.9103 777.811L51.0238 794.165M34.9103 777.811V760.736M34.9103 777.811L18.3159 794.165L34.9103 811L51.0238 794.165M51.0238 794.165V777.811H68.0992M68.0992 777.811L85.1746 760.736M68.0992 777.811L51.9857 760.736M85.1746 760.736L68.0992 743.66M68.0992 743.66H51.0238M68.0992 743.66L51.9857 760.736M51.0238 743.66L34.9103 760.736M51.0238 743.66V727.306V711.433H68.0992M34.9103 760.736H51.9857M34.9103 760.736L18.0806 777.811M34.9103 760.736H18.3159M68.0992 711.433L85.1746 694.118M68.0992 711.433L51.9857 694.118M85.1746 694.118L68.0992 676.802M68.0992 676.802L51.9857 694.118M68.0992 676.802H51.0238L51.9857 644.094H68.5802M51.9857 694.118H34.9103M34.9103 694.118H17.8349M34.9103 627.259L1 660.448L17.543 676.802M34.9103 627.259H17.8349M34.9103 627.259L51.9857 610.265M85.1746 811L18.2219 743.66M18.0806 777.811L1.962 794.165L18.3159 811L18.0806 777.811ZM18.0806 777.811H1.962L18.3159 760.736M18.3159 760.736L1 743.66H18.2219M18.2219 743.66L1.962 727.306L17.8349 711.433M18.2219 743.66L18.0284 727.547M17.8349 711.433L18.0284 727.547M17.8349 711.433H1L17.8349 694.118M17.8349 694.118L1 676.802H17.543M17.543 676.802L17.8825 660.448M17.8349 627.259L1 644.094H18.2219L17.8825 660.448M17.8349 627.259L1 610.424H18.2219L18.0284 593.83M17.8349 627.259H51.9857M17.8349 560.16L1 577.235H17.8349L18.0284 593.83M17.8349 560.16L1 543.084H17.8349L18.0284 526.73M17.8349 560.16H51.9857M17.8349 493.061L1 509.414L18.2219 510.376L18.0284 526.73M17.8349 493.061L1.962 476.226M17.8349 493.061H34.8306M1.962 476.226L17.8349 459.872M1.962 476.226H18.2219M17.8349 459.872L1 443.037H17.8349V426.442M17.8349 459.872H51.8262M17.8349 393.013L1.962 409.848H17.8349V426.442M17.8349 393.013L1.962 376.178H17.8349V359.584M17.8349 393.013H52.2777M17.8349 325.914L1.962 342.989H17.8349V359.584M17.8349 325.914L1.962 309.8H17.8349V292.966M17.8349 325.914H52.2777M17.8349 259.777L1.962 276.131H17.8349V292.966M17.8349 259.777L1.481 242.461H17.8349V225.626M17.8349 259.777H51.7939M17.8349 191.956L1.481 208.791H17.8349V225.626M17.8349 191.956L1.481 175.121H17.8349V158.767M17.8349 191.956H52.4667M17.8349 125.097L1.481 142.413H17.8349V158.767M17.8349 125.097L1.481 108.743H17.8349V91.9086M17.8349 125.097H51.5048M51.0238 74.4292L51.5048 108.743M51.5048 108.743L1.481 158.767L51.7939 208.791M51.5048 108.743H68.3397M51.5048 125.097L68.3397 108.743M51.5048 125.097L68.3397 142.413L85.1746 125.097M68.3397 108.743L85.1746 125.097M52.4667 142.413V175.121H68.8207M52.4667 191.956L68.8207 175.121M52.4667 191.956L68.8207 208.791L85.1746 191.956M68.8207 175.121L85.1746 191.956M51.7939 208.791V242.365M51.7939 242.365L1.962 292.485L52.2777 343.091M51.7939 259.777L68.3397 242.942L85.1746 259.055M51.7939 259.777L68.3397 276.131L85.1746 259.055M52.2777 276.131L52.4667 308.838M52.4667 308.838L1.962 359.343L52.1765 409.848M52.4667 308.838H68.3397M18.2219 476.226L51.6983 509.655M52.2777 325.914L68.3397 308.838M52.2777 325.914L68.3397 342.989L85.1746 325.914M68.3397 308.838L85.1746 325.914M52.2777 343.091V375.886M52.2777 375.886L68.7261 376.032M52.2777 393.013L68.7261 376.032M52.2777 393.013L68.6755 409.848M68.7261 376.032L85.1746 393.013M85.1746 393.013L68.6755 409.848M52.1765 409.848H68.6755M52.1765 409.848L51.8262 443.037M51.8262 443.037H68.5004M51.8262 459.872L68.5004 443.037M68.0992 476.226L51.8262 493.061M51.8262 493.061H34.8306M34.8306 493.061L1.962 526.249L51.8262 576.69M51.6983 509.655L51.8262 543.084H68.5004M68.5004 543.084L51.9857 560.16M68.5004 543.084L85.1746 560.16M51.9857 560.16L68.5004 577.235L85.1746 560.16M51.8262 576.69L51.9857 610.265M51.9857 610.265L68.5802 610.345M68.5802 610.345L85.1746 627.259M68.5802 610.345L51.9857 627.259M85.1746 627.259L68.5802 644.094M68.5802 644.094L51.9857 627.259" stroke="#7A6145" stroke-width="0.769596"/>
</svg>
